<svg width="57.149998mm" height="15.239994mm" viewBox="0 0 57.149998 15.239994" xmlns="http://www.w3.org/2000/svg"><path class="st0" d="M34.2 100.8h66.5L86.5 76.2v-8.4l3.9-5.1H78.6L67.4 43.2 56.2 62.7H44.4l3.9 5.1v8.4zm14.2-3.4H40l8.4-14.5zm5.7 0h-2.4V77.6h2.4zm0-23.1h-2.4v-2.4h2.4zm11.6 23.1h-8.2V77.6h8.2zm11.6 0h-8.2V77.6h8.2zm0-23.1H57.5v-2.4h19.8zm5.8 23.1h-2.4V77.6h2.4zm0-23.1h-2.4v-2.4h2.4zm3.4 8.6 8.4 14.5h-8.4zm-19.1-33 7.4 12.7H60ZM83.6 66l-.5.7v1.8H51.7v-1.8l-.5-.7Zm143.9 20h22.7l-3.5-6h-13.2V57.2l-6 3.5zm-20-11.8c0 3.6-2.9 6.5-6.5 6.5s-6.5-2.9-6.5-6.5v-17l-6 3.5v13.5c0 6.9 5.6 12.5 12.5 12.5s12.5-5.6 12.5-12.5v-17l-6 3.5zm-39.1 0c0 3.6-2.9 6.5-6.5 6.5s-6.5-2.9-6.5-6.5v-17l-6 3.5v13.5c0 6.9 5.6 12.5 12.5 12.5s12.5-5.6 12.5-12.5v-17l-6 3.5zm-58-10.9h13.1L110.4 86h21.5l3.5-6h-14.6l13.1-22.8h-20.1z" style="fill:#f0f0f0" transform="translate(-9.04875 -11.430001) scale(.26458)"/></svg>